<svg width="32" height="32" viewBox="0 0 32 32" fill="none" xmlns="http://www.w3.org/2000/svg">
<path d="M28.481 13.9003V25.9198C28.481 26.4715 28.2618 27.0006 27.8717 27.3907C27.4816 27.7808 26.9525 27.9999 26.4008 27.9999H21.2004C20.6487 27.9999 20.1196 27.7808 19.7295 27.3907C19.3394 27.0006 19.1202 26.4715 19.1202 25.9198V20.7193C19.1202 20.4435 19.0106 20.1789 18.8156 19.9839C18.6205 19.7888 18.356 19.6793 18.0801 19.6793H13.9198C13.6439 19.6793 13.3794 19.7888 13.1843 19.9839C12.9893 20.1789 12.8797 20.4435 12.8797 20.7193V25.9198C12.8797 26.4715 12.6605 27.0006 12.2704 27.3907C11.8803 27.7808 11.3512 27.9999 10.7995 27.9999H5.59909C5.0474 27.9999 4.5183 27.7808 4.12819 27.3907C3.73808 27.0006 3.51892 26.4715 3.51892 25.9198V13.9003C3.51888 13.6124 3.57859 13.3276 3.69429 13.064C3.80999 12.8004 3.97916 12.5636 4.19108 12.3687L14.5919 2.55554L14.6062 2.54123C14.9892 2.19298 15.4882 2 16.0058 2C16.5234 2 17.0224 2.19298 17.4054 2.54123C17.4098 2.54632 17.4146 2.5511 17.4197 2.55554L27.8205 12.3687C28.0303 12.5646 28.1973 12.8018 28.311 13.0654C28.4246 13.329 28.4825 13.6132 28.481 13.9003Z" fill="#848489"/>
</svg>
