<svg width="22" height="27" viewBox="0 0 22 27" fill="none" xmlns="http://www.w3.org/2000/svg">
<path d="M19.0548 11.7073L17.4796 11.051L19.3584 10.0501C21.7622 8.77841 22.6811 5.8003 21.4094 3.39649C20.1378 0.992671 17.1597 0.0738067 14.7559 1.34545L3.58182 7.26884C1.178 8.52408 0.242731 11.494 1.49797 13.906C2.01483 14.8987 2.85985 15.6863 3.88537 16.1293L5.46057 16.7775L3.58182 17.7702C1.21082 19.1074 0.373997 22.1184 1.71127 24.4894C2.99932 26.7701 5.83796 27.648 8.18435 26.4912L19.3584 20.576C21.7622 19.3207 22.6975 16.3508 21.4423 13.9388C20.9172 12.9461 20.0804 12.1585 19.0548 11.7073Z" fill="#848489"/>
<path d="M8.48608 17.8602L15.5447 14.1238L8.48608 10.3785V17.8602Z" fill="white"/>
</svg>
