<svg width="25" height="25" viewBox="0 0 25 25" fill="none" xmlns="http://www.w3.org/2000/svg">
<circle cx="12.1053" cy="12.5704" r="12.1053" fill="white"/>
<path fill-rule="evenodd" clip-rule="evenodd" d="M8.5531 6.50668C8.76844 5.44959 9.70912 4.70166 10.7869 4.70166H13.4236C14.5014 4.70166 15.4421 5.44959 15.6574 6.50668C15.7071 6.75071 15.9282 6.92972 16.1581 6.92972H16.1713L16.1845 6.9303C17.3171 6.97982 18.1871 7.11881 18.9134 7.59529C19.371 7.89549 19.7646 8.28173 20.0713 8.73242C20.4529 9.29316 20.6213 9.93674 20.7019 10.7151C20.7807 11.4756 20.7807 12.4289 20.7807 13.6362V13.7049C20.7807 14.9123 20.7807 15.8655 20.7019 16.626C20.6213 17.4044 20.4529 18.048 20.0713 18.6087C19.7646 19.0594 19.371 19.4456 18.9134 19.7458C18.3457 20.1183 17.6948 20.2825 16.9054 20.3613C16.1325 20.4385 15.1631 20.4385 13.9319 20.4385H10.2786C9.04744 20.4385 8.07796 20.4385 7.30508 20.3613C6.51568 20.2825 5.86483 20.1183 5.29713 19.7458C4.83952 19.4456 4.44589 19.0594 4.13917 18.6087C3.75755 18.048 3.58924 17.4044 3.50859 16.626C3.4298 15.8655 3.4298 14.9123 3.42981 13.7049V13.6362C3.4298 12.4289 3.4298 11.4756 3.50859 10.7151C3.58924 9.93674 3.75755 9.29316 4.13917 8.73242C4.44589 8.28173 4.83952 7.89549 5.29713 7.59529C6.02342 7.11881 6.89337 6.97982 8.02596 6.9303L8.03918 6.92972H8.0524C8.28231 6.92972 8.50339 6.75072 8.5531 6.50668ZM10.7869 5.91219C10.2695 5.91219 9.83676 6.26969 9.73927 6.74831C9.58136 7.52347 8.89413 8.13299 8.0672 8.14018C6.97885 8.18854 6.39589 8.32223 5.96113 8.60745C5.63546 8.82109 5.35658 9.09515 5.13993 9.41349C4.91707 9.74096 4.78314 10.1597 4.71267 10.8399C4.64109 11.5307 4.64034 12.4213 4.64034 13.6706C4.64034 14.9199 4.64109 15.8104 4.71267 16.5013C4.78314 17.1814 4.91707 17.6002 5.13993 17.9276C5.35658 18.246 5.63546 18.52 5.96113 18.7337C6.29808 18.9547 6.72925 19.0873 7.42538 19.1568C8.13108 19.2273 9.04014 19.228 10.3119 19.228H13.8986C15.1704 19.228 16.0794 19.2273 16.7851 19.1568C17.4812 19.0873 17.9124 18.9547 18.2494 18.7337C18.575 18.52 18.8539 18.246 19.0706 17.9276C19.2934 17.6002 19.4274 17.1814 19.4978 16.5013C19.5694 15.8104 19.5702 14.9199 19.5702 13.6706C19.5702 12.4213 19.5694 11.5307 19.4978 10.8399C19.4274 10.1597 19.2934 9.74096 19.0706 9.41349C18.8539 9.09515 18.575 8.82109 18.2494 8.60745C17.8146 8.32223 17.2316 8.18854 16.1433 8.14018C15.3164 8.13299 14.6291 7.52347 14.4712 6.74831C14.3737 6.26969 13.941 5.91219 13.4236 5.91219H10.7869ZM12.1052 11.5613C11.1024 11.5613 10.2895 12.3743 10.2895 13.3771C10.2895 14.3799 11.1024 15.1929 12.1052 15.1929C13.1081 15.1929 13.921 14.3799 13.921 13.3771C13.921 12.3743 13.1081 11.5613 12.1052 11.5613ZM9.07893 13.3771C9.07893 11.7057 10.4339 10.3508 12.1052 10.3508C13.7766 10.3508 15.1316 11.7057 15.1316 13.3771C15.1316 15.0485 13.7766 16.4034 12.1052 16.4034C10.4339 16.4034 9.07893 15.0485 9.07893 13.3771ZM16.3421 10.956C16.3421 10.6218 16.6131 10.3508 16.9474 10.3508H17.7544C18.0886 10.3508 18.3596 10.6218 18.3596 10.956C18.3596 11.2903 18.0886 11.5613 17.7544 11.5613H16.9474C16.6131 11.5613 16.3421 11.2903 16.3421 10.956Z" fill="#AEB0BE"/>
</svg>
