<svg width="9" height="10" viewBox="0 0 9 10" fill="none" xmlns="http://www.w3.org/2000/svg">
<path d="M0.751121 4.8933C0.765123 4.20247 0.772124 3.85706 1.0016 3.56136C1.04348 3.50739 1.10494 3.44326 1.15644 3.39978C1.43865 3.16153 1.81123 3.16153 2.5564 3.16153C2.82263 3.16153 2.95574 3.16153 3.08263 3.12669C3.109 3.11946 3.13509 3.11111 3.16084 3.10168C3.28476 3.05628 3.3959 2.97814 3.61819 2.82185C4.49519 2.20527 4.93369 1.89697 5.30174 2.0309C5.37231 2.05658 5.44061 2.09364 5.50162 2.13936C5.81979 2.37779 5.84396 2.93253 5.89231 4.04202C5.91022 4.45283 5.92241 4.80443 5.92241 5C5.92241 5.19557 5.91022 5.54717 5.89231 5.95798C5.84396 7.06747 5.81979 7.62221 5.50162 7.86064C5.44061 7.90635 5.37231 7.94342 5.30174 7.9691C4.93369 8.10302 4.49519 7.79473 3.61819 7.17814C3.3959 7.02186 3.28476 6.94372 3.16084 6.89832C3.13509 6.88889 3.109 6.88054 3.08263 6.8733C2.95574 6.83847 2.82263 6.83847 2.5564 6.83847C1.81123 6.83847 1.43865 6.83847 1.15644 6.60022C1.10494 6.55674 1.04348 6.49261 1.0016 6.43864C0.772124 6.14294 0.765123 5.79753 0.751121 5.1067C0.750386 5.07041 0.75 5.03479 0.75 5C0.75 4.96521 0.750386 4.92959 0.751121 4.8933Z" fill="white"/>
<path fill-rule="evenodd" clip-rule="evenodd" d="M7.30857 2.58207C7.4183 2.48457 7.58138 2.50038 7.67282 2.61738L7.47414 2.79392C7.67282 2.61738 7.67272 2.61726 7.67282 2.61738L7.67321 2.61789L7.67365 2.61846L7.67467 2.61978L7.67726 2.62319C7.67923 2.6258 7.68167 2.62908 7.68454 2.63305C7.6903 2.64098 7.69781 2.65165 7.70681 2.66509C7.72483 2.69198 7.74882 2.73 7.77672 2.77959C7.83255 2.87879 7.90388 3.02409 7.97414 3.21889C8.11491 3.60915 8.25 4.19426 8.25 5.00009C8.25 5.80591 8.11491 6.39102 7.97414 6.78128C7.90388 6.97608 7.83255 7.12138 7.77672 7.22059C7.74882 7.27017 7.72483 7.30819 7.70681 7.33508C7.69781 7.34853 7.6903 7.35919 7.68454 7.36712C7.68167 7.37109 7.67923 7.37437 7.67726 7.37698L7.67467 7.38039L7.67365 7.38172L7.67321 7.38229C7.67311 7.38241 7.67282 7.38279 7.47414 7.20625L7.67282 7.38279C7.58138 7.4998 7.4183 7.51561 7.30857 7.4181C7.19937 7.32107 7.18417 7.14837 7.27415 7.03139C7.27436 7.03111 7.27477 7.03056 7.27535 7.02976C7.27718 7.02724 7.28078 7.02218 7.28592 7.01451C7.29619 6.99917 7.3126 6.97342 7.33319 6.93682C7.37435 6.86368 7.43233 6.747 7.49138 6.58329C7.60923 6.25655 7.73276 5.73858 7.73276 5.00009C7.73276 4.2616 7.60923 3.74363 7.49138 3.41688C7.43233 3.25318 7.37435 3.1365 7.33319 3.06335C7.3126 3.02676 7.29619 3.001 7.28592 2.98567C7.28078 2.978 7.27718 2.97293 7.27535 2.97042C7.27476 2.9696 7.27436 2.96906 7.27415 2.96878C7.27415 2.96877 7.27415 2.96878 7.27415 2.96878" fill="white"/>
<path fill-rule="evenodd" clip-rule="evenodd" d="M6.65893 3.65598C6.78379 3.58202 6.94123 3.62999 7.0106 3.76312L6.78453 3.89705C7.0106 3.76312 7.01054 3.763 7.0106 3.76312L7.01085 3.7636L7.01112 3.76412L7.01169 3.76524L7.01302 3.76786L7.01634 3.7746C7.01884 3.77978 7.0219 3.7863 7.02543 3.79421C7.0325 3.81003 7.04144 3.83136 7.05159 3.8584C7.07189 3.91251 7.09691 3.98934 7.12125 4.09054C7.16996 4.29311 7.21556 4.59195 7.21556 5.00013C7.21556 5.40831 7.16996 5.70715 7.12125 5.90973C7.09691 6.01092 7.07189 6.08775 7.05159 6.14186C7.04144 6.1689 7.0325 6.19023 7.02543 6.20605C7.0219 6.21396 7.01884 6.22048 7.01634 6.22566L7.01302 6.23241L7.01169 6.23502L7.01112 6.23614L7.01085 6.23666C7.01079 6.23678 7.0106 6.23714 6.78453 6.10321L7.0106 6.23714C6.94123 6.37028 6.78379 6.41824 6.65893 6.34428C6.53513 6.27094 6.48985 6.10527 6.55671 5.97269L6.55843 5.96892C6.5608 5.96363 6.56532 5.95307 6.57134 5.93702C6.58337 5.90495 6.60145 5.85079 6.62022 5.77274C6.65771 5.61681 6.69832 5.3641 6.69832 5.00013C6.69832 4.63616 6.65771 4.38345 6.62022 4.22753C6.60145 4.14947 6.58337 4.09531 6.57134 4.06324C6.56532 4.04719 6.5608 4.03663 6.55843 4.03134L6.55671 4.02758C6.48985 3.89499 6.53513 3.72932 6.65893 3.65598Z" fill="white"/>
</svg>
