<svg id="Layer_1" data-name="Layer 1" xmlns="http://www.w3.org/2000/svg" viewBox="0 0 447.23 325.85"><path d="M211.69,36.45a39.28,39.28,0,0,1,11.81,5.12c7.46,4.5,13.13,10.79,17.95,17.91a188.92,188.92,0,0,1,11.33,20.1c4.23,8.24,8.29,16.57,13.91,24,4.6,6.1,10,11.23,16.9,14.63a59.45,59.45,0,0,0,12.15,4.36,62.08,62.08,0,0,0,17.1,2c7.11-.25,13.94-1.77,20-5.58a30.15,30.15,0,0,0,12.2-14.16c.4-1,.84-1.94,1.25-2.9.58.1.53.52.54.86a47.9,47.9,0,0,1-.34,9.94,51,51,0,0,1-8.45,21,73.1,73.1,0,0,1-19.47,18.86c-7,4.74-14.59,8.18-22.22,11.66-12.48,5.69-23.83,13.07-33,23.4C256,196,250.93,205.59,249.1,216.62a40.1,40.1,0,0,0,.56,16.78c.09.36.24.74-.18,1.15a10.61,10.61,0,0,1-2.89-2.19,57.89,57.89,0,0,1-11.85-15.18c-1.41-2.59-2.63-5.26-3.79-8a2.57,2.57,0,0,1,.23-2.61q6.44-10.23,12.76-20.54a60.41,60.41,0,0,0,3.23-5.27,3,3,0,0,1,1.37-1.49c1.13.24,1.9,1.19,3.22,1.63,3-4.29,5.82-8.78,8.8-13.39-3.62-2.65-7.46-5-11.42-7.64l-8.83,13.49c.88,1.1,2.21,1.45,3.19,2.78-5.08,7.48-10.26,15.07-15.72,22.91a47,47,0,0,1-1.73-7.83,111.38,111.38,0,0,1-.51-29.24,178.79,178.79,0,0,1,8.78-38.9A67.77,67.77,0,0,0,238,103.05a4.9,4.9,0,0,1,.11-.74c.67-1.42.41-3,.46-4.43.2-6.2.41-12.4-.86-18.55a69.8,69.8,0,0,0-10.61-24.9c-4.08-6.11-9.17-11.26-14.35-16.36C212.29,37.62,211.51,37.33,211.69,36.45Z" transform="translate(-26.39 -22.41)" fill="#19b3c8"/><path d="M211.69,36.45c5.05,4.77,10.05,9.6,14.15,15.25,6.35,8.79,10.85,18.37,12.63,29.15a72.48,72.48,0,0,1,.27,20.22c-.06.5-.05,1-.64,1.24,0-8.85-2-17.18-6.82-24.67a42.74,42.74,0,0,0-28.39-19.36c-6.74-1.39-13.37-1.07-19.68,1.91-5.24,2.47-9.16,6.51-12.53,11.11-6.22,8.48-8.19,18.16-7.71,28.46.5,10.52,3.37,20.5,7.22,30.23,6,15.18,14.14,29.2,23.21,42.72a467.18,467.18,0,0,0,48.06,59.68c.41.44,1,.79,1.13,1.44-.59.38-1-.15-1.34-.36a227,227,0,0,1-28.19-18.67,387.59,387.59,0,0,1-45.53-40.15c-8-8.27-15.57-16.87-21.88-26.5a95.58,95.58,0,0,1-15.23-40.69c-1.73-13.64-.53-27,5.62-39.48,8.37-17,22.13-27.54,40.36-32.27a67.47,67.47,0,0,1,33.14,0C210.27,35.93,211,36.22,211.69,36.45Z" transform="translate(-26.39 -22.41)" fill="#092946"/><path d="M257.14,76.45c2-18,11.4-30.41,28.38-37.54a47.05,47.05,0,0,0-20.08-6,64.59,64.59,0,0,0-20.71,1.91,33.82,33.82,0,0,1,5.86-3.49c13-6.63,26.8-9.82,41.43-8.73A71.8,71.8,0,0,1,320.87,31,79.38,79.38,0,0,1,356.54,69a67.55,67.55,0,0,1,5.78,37.62,64.75,64.75,0,0,1-11.71,29.19C343.75,145.43,335,153,325,159.27a3.3,3.3,0,0,1-.51.2c.06-.54.44-.75.7-1,9.32-9.91,17-20.87,22-33.62a55.15,55.15,0,0,0,4-19.62,42,42,0,0,0-6.75-23.7,57,57,0,0,0-25.66-21.9c-10.1-4.37-20.58-4.75-31.13-1.88A59.94,59.94,0,0,0,260.39,73.4c-1,1-1.89,2.16-2.83,3.24Z" transform="translate(-26.39 -22.41)" fill="#092946"/><path d="M26.64,325.67H275.78v12.42h-249C26.32,336.66,26.26,327.64,26.64,325.67Z" transform="translate(-26.39 -22.41)" fill="#1eb2c6"/><path d="M175.11,273.44h-34c-.63,5.63,3,11.8,8.84,12.15a12.56,12.56,0,0,0,10.05-3.72,6.52,6.52,0,0,1,5.06-2c2.45.07,4.9,0,7.34,0a3.08,3.08,0,0,1,1.94.29,14.71,14.71,0,0,1-1.93,5.72c-3.93,8-10.8,11.27-19.32,11.67a29.11,29.11,0,0,1-12.34-1.89,20.23,20.23,0,0,1-11.64-11.81,31.79,31.79,0,0,1-2.14-9.67c-.41-6-.25-11.89,1.68-17.66,3.05-9.14,9.87-13.46,18.92-14.37a33.68,33.68,0,0,1,11.54.71,18.71,18.71,0,0,1,13.37,10.79c2.77,6.08,3.25,12.54,2.91,19.11C175.43,272.91,175.33,273,175.11,273.44Z" transform="translate(-26.39 -22.41)" fill="#1cb3c8"/><path d="M473.49,273.51H439a16.85,16.85,0,0,0,2.4,8.17,8.28,8.28,0,0,0,6.5,3.88,11.9,11.9,0,0,0,10.22-3.67,6.32,6.32,0,0,1,4.88-2c2.64,0,5.27,0,7.91,0a2.5,2.5,0,0,1,1.76.31c-1.38,5.68-3.94,10.81-9.13,13.8-9.07,5.22-18.48,4.9-27.65.15-4.59-2.37-7.4-6.54-8.94-11.42a43.24,43.24,0,0,1-.12-26.06c2.29-7.5,7.43-12.19,15.12-13.88a32.79,32.79,0,0,1,16.52.35c6.46,1.91,10.72,6.2,13,12.47C473.63,261.31,473.8,267.22,473.49,273.51Z" transform="translate(-26.39 -22.41)" fill="#1ab3c8"/><path d="M93.73,296.35c-3.06,0-6.17.48-9.24-.41-2.61-.76-4-2.71-4-5.67q0-12.43,0-24.86a36.79,36.79,0,0,0-.29-4.69,7.09,7.09,0,0,0-5.52-6.37,13.89,13.89,0,0,0-7.24.06c-3.4.93-5.31,3.61-5.32,7.48,0,7.47,0,14.94,0,22.41v10a5.56,5.56,0,0,1-.19,2H48.6a2.81,2.81,0,0,1-.37-2.08q0-13.56,0-27.12a43.26,43.26,0,0,1,1.05-10.63c1.74-6.82,5.9-11.31,12.7-13.26a34.07,34.07,0,0,1,18.73,0A16.81,16.81,0,0,1,93,255.52a29.37,29.37,0,0,1,1.12,7.78c.05,10.42,0,20.84,0,31.26A2.91,2.91,0,0,1,93.73,296.35Z" transform="translate(-26.39 -22.41)" fill="#19b3c8"/><path d="M229.16,257.16H216a4.56,4.56,0,0,1,.35-3.1c2-6.35,6.59-9.74,12.83-11a39.8,39.8,0,0,1,19.15.7c5.5,1.54,9.48,4.73,10.67,10.65a8.64,8.64,0,0,1,.18,1.68c0,7.28.11,14.57,0,21.85a19.63,19.63,0,0,1-4,11.52c-2.85,3.8-6.84,5.82-11.26,7a35.9,35.9,0,0,1-14.69,1.16c-.6-.08-1.28.05-1.78-.79C231,292,235,287.34,239,282.42l3.35,5.19c1.07-1.57,6.63-21.22,6.41-22.9l-20.88,11.11c1.76,1.11,3.59,1.34,5.55,2.27-4.25,5.52-8.66,10.73-13,16.24a13.07,13.07,0,0,1-4.5-5c-3.16-6-2.77-15.73,3.4-20.64a19.57,19.57,0,0,1,6.67-3.38,57.62,57.62,0,0,1,11.06-2,14.35,14.35,0,0,0,6.76-2c2.88-1.89,2.78-5.28-.37-6.64a15.42,15.42,0,0,0-11.73-.18A4.36,4.36,0,0,0,229.16,257.16Z" transform="translate(-26.39 -22.41)" fill="#19b3c8"/><path d="M313.65,259.34a9.47,9.47,0,0,1-2.92.16c-3.26,0-6.53,0-9.79,0a2.23,2.23,0,0,1-2.28-1.22,8.48,8.48,0,0,0-8.34-4.35c-3.78.2-6.72,1.76-8.34,5.39a18.59,18.59,0,0,0-1.72,7.05c-.14,3.76-.24,7.51.74,11.21s2.95,6.54,6.74,7.58c4,1.1,7.89.57,10.91-2.66a7.82,7.82,0,0,1,6.34-2.64c2.87.1,5.74,0,8.77,0,.25,2.33-.79,4.18-1.68,6-4,8-10.78,11.66-19.6,11.76a36.42,36.42,0,0,1-8.58-.72c-8.23-1.88-13.34-7-15.77-14.93a42.56,42.56,0,0,1-.24-24.24c2.35-8.47,8.12-13.44,16.66-15.1a33.55,33.55,0,0,1,15.08.37c7.75,2,12.1,7.32,14.11,14.82A1.92,1.92,0,0,1,313.65,259.34Z" transform="translate(-26.39 -22.41)" fill="#1ab3c8"/><path d="M385.39,243q2.64,9.12,5.29,18.29t5.2,18.08l.42,0c.62-2.07,1.25-4.14,1.84-6.22,2.37-8.36,4.69-16.73,7.09-25.08,1.06-3.67,3.06-5.12,6.86-5.15,3.32,0,6.63,0,10.38,0l-18.86,53.4H389.15L370.42,243Z" transform="translate(-26.39 -22.41)" fill="#1ab3c8"/><path d="M217.46,65.8a53.8,53.8,0,0,0-9.39-.32,37.17,37.17,0,0,0-14.4,3.1A27.07,27.07,0,0,0,180,82.21c-3.74,8.18-4.19,16.77-3.5,25.56a111.13,111.13,0,0,0,4.75,23.49,185.79,185.79,0,0,0,10,25.28c2.52,5.37,5.2,10.67,8.09,15.85,3.65,6.55,7.6,12.94,11.73,19.2,2.78,4.21,5.65,8.37,8.29,12.74a8.44,8.44,0,0,1-.95-.94c-7.32-9.53-14.63-19.06-21.21-29.13-5.1-7.8-10-15.71-14.36-23.93a159.45,159.45,0,0,1-12.68-30,72.92,72.92,0,0,1-3.28-26,40.54,40.54,0,0,1,5.7-18.65c3.3-5.4,7.41-10,13-13,5-2.78,10.54-3.24,16.23-2.59a40.52,40.52,0,0,1,14.36,4.65c.39.2.77.42,1.14.65C217.33,65.42,217.35,65.58,217.46,65.8Z" transform="translate(-26.39 -22.41)" fill="#1cb2c9"/><path d="M342.75,285.65v9.27a1,1,0,0,1-1,1.08c-5,.1-9.91.39-14.81-.61a6.51,6.51,0,0,1-5.36-5.35,19.24,19.24,0,0,1-.57-4.27q0-28,0-55.93a3.43,3.43,0,0,1,.39-2.28c2.51,0,5.09-.19,7.63.05a6.5,6.5,0,0,1,5.52,6.22c.07,2.26,0,4.52,0,6.78a3.47,3.47,0,0,0,.38,2.13c2.45.38,5-.1,7.64.28.33,2.53.28,4.9-1.34,7a6.49,6.49,0,0,1-6.13,2.44,1.87,1.87,0,0,0-.55,1.76q0,13.65,0,27.3c0,2.7,1.18,3.87,3.88,4A31.66,31.66,0,0,1,342.75,285.65Z" transform="translate(-26.39 -22.41)" fill="#1bb3c6"/><path d="M113.66,242.7c2.76.37,5.27,0,7.94.25.06,2.49.42,4.92-1.25,7s-4,2.57-6.37,2.55a4.28,4.28,0,0,0-.3,2.28q0,13.28,0,26.56c0,3,1.08,4.06,4.06,4.11,1.24,0,2.48,0,3.94,0,0,3.31,0,6.42,0,9.54,0,.73-.53.93-1.15.95a80.11,80.11,0,0,1-14.28-.39c-3.41-.49-5.83-3.48-6.08-7.16-.07-1-.06-2-.06-3q0-27.78,0-55.56a6.72,6.72,0,0,1,.22-2.37c2.75.08,5.64-.44,8.43.26,3.16.8,4.83,3.57,4.9,7.39C113.69,237.59,113.66,240,113.66,242.7Z" transform="translate(-26.39 -22.41)" fill="#19b3c8"/><path d="M402,347.31H390.35l-6.56-13.06h-5.16v13H368.49v-39c.32-.42.73-.28,1.08-.28,6.4,0,12.81,0,19.21,0,4.54,0,8.31,1.66,11,5.51a13,13,0,0,1-5,19.06c-.17.09-.31.21-.64.42l3.86,7Z" transform="translate(-26.39 -22.41)" fill="#092946"/><path d="M41.27,296.38H27.63a3.29,3.29,0,0,1-.43-2.14,24.83,24.83,0,0,0,.15-4.31q0-26.73,0-53.46c0-1.13,0-2.27.08-3.39a5.69,5.69,0,0,1,5.25-5.47c2.8-.22,5.62-.05,8.58-.05Z" transform="translate(-26.39 -22.41)" fill="#19b3c8"/><path d="M336.53,341.83c-.65,1.82-1.27,3.58-1.92,5.45H323.09l14.72-39.13h12.9c4.9,13,9.82,26,14.79,39.14H354q-.91-2.69-1.88-5.46Z" transform="translate(-26.39 -22.41)" fill="#0b2846"/><path d="M439.47,341.77c1.8-2.52,3.53-4.95,5.34-7.51a18.35,18.35,0,0,0,7.12,4.35,16,16,0,0,0,7.61.6,5.07,5.07,0,0,0,2.25-.9c1.67-1.28,1.59-3-.25-4a13.18,13.18,0,0,0-4.11-1.27,49.3,49.3,0,0,1-10.28-3c-7.36-3-8.26-12.62-3.57-17.69a15.34,15.34,0,0,1,10.49-4.85c6.12-.48,11.87.64,17,4.29a6.92,6.92,0,0,1,.74.57,5.91,5.91,0,0,1,.59.65L467,320a6.63,6.63,0,0,1-2-1.16,17.94,17.94,0,0,0-10.21-2.71,4.76,4.76,0,0,0-.75.07c-1.89.32-2.78,1.08-2.88,2.44-.07,1.1.63,1.89,2.36,2.54a19.09,19.09,0,0,0,3.64.94,47.17,47.17,0,0,1,9.36,2.75c8.27,3.24,8.16,12.89,4.51,17.65a12.13,12.13,0,0,1-6.56,4.5c-7.8,2.11-15.29,1.45-22.26-2.92A11.07,11.07,0,0,1,439.47,341.77Z" transform="translate(-26.39 -22.41)" fill="#0a2946"/><path d="M436.26,338.52v8.74H407.64v-39.1h28.61v8.7H417.79V323h18.09v8.83H417.8v6.71Z" transform="translate(-26.39 -22.41)" fill="#0b2846"/><path d="M181.81,296.43a4.57,4.57,0,0,1-.24-2.11q0-12.42,0-24.84a34.77,34.77,0,0,1,2-12.17,20.32,20.32,0,0,1,13-12.61,35.32,35.32,0,0,1,12.56-1.83c.5,0,1,0,1.5,0a2,2,0,0,1,.48.2v13.52c-.72.49-1.63.2-2.47.24-1.69.08-3.36,0-5.06.23-5.12.74-7.94,4.89-8.08,9.59s-.07,9.41-.07,14.12c0,4.52,0,9,0,13.55,0,2,0,2.05-2,2.05Z" transform="translate(-26.39 -22.41)" fill="#19b3c8"/><path d="M314.93,98.6a17.76,17.76,0,0,1-23.24,17.32c-7-2.23-11.16-7.28-12.28-14.68a18.2,18.2,0,0,1,2.34-11.55A2.11,2.11,0,0,1,284,88.43a23.65,23.65,0,0,1,6.89,1.63,25.75,25.75,0,0,1,5,2.46,2,2,0,0,0,2.4,0,31.55,31.55,0,0,1,10.25-3.93c2.55-.43,3.05-.38,4.24,1.87A15.55,15.55,0,0,1,314.93,98.6Z" transform="translate(-26.39 -22.41)" fill="#19b3c8"/><path d="M314.87,333.53l8.49,4c-2.25,4.32-5.33,7.66-9.77,9.27a21.71,21.71,0,0,1-18.88-1.59c-7.57-4.39-10.49-11.29-9.79-19.86.82-10,9-17.4,19.43-18,6.1-.33,11.58,1.05,15.83,5.78a22.5,22.5,0,0,1,3.14,4.68c-2.79,1.51-5.65,2.81-8.46,4.06-.82-.48-1-1.28-1.45-1.86-3.78-4.76-10.58-4.95-15.06-.52-5.27,5.22-4.2,16.89,5,19.26a9.34,9.34,0,0,0,10.78-4.46A1.58,1.58,0,0,1,314.87,333.53Z" transform="translate(-26.39 -22.41)" fill="#0a2946"/><path d="M363.65,296.36H350.46V243a46.51,46.51,0,0,1,9.37.14,5,5,0,0,1,4,4.78c0,.75,0,1.5,0,2.25l0,44.22A4.41,4.41,0,0,1,363.65,296.36Z" transform="translate(-26.39 -22.41)" fill="#1cb3c6"/><path d="M185,92.62h13.4V79.14h12.48v39.62H198.47V105.18H185Z" transform="translate(-26.39 -22.41)" fill="#19b3c8"/><path d="M272.05,76.14,288.46,70c2.46-.91,5-1.78,7.4-2.73a3.06,3.06,0,0,1,2.34-.1c8,3,15.95,6,24,9-.18.63-.73.64-1.16.77-7.54,2.45-15.1,4.87-22.64,7.33a3.73,3.73,0,0,1-2.38,0l-22.85-7.4A1.48,1.48,0,0,1,272.05,76.14Z" transform="translate(-26.39 -22.41)" fill="#0a2946"/><path d="M308.41,165.41c-28.84,13.91-46.39,36.88-55.28,67.39a54.74,54.74,0,0,1-.18-10.9c1.48-19,11.17-33.13,26.39-43.86a83.76,83.76,0,0,1,27.57-12.55A2.78,2.78,0,0,1,308.41,165.41Z" transform="translate(-26.39 -22.41)" fill="#0e2948"/><path d="M282.14,87.45c-.17-2.23-.09-4.52-.07-7,4.37,1.41,8.54,2.71,12.68,4.14a7,7,0,0,0,4.9,0c4.07-1.43,8.19-2.69,12.45-4.08v7a11.85,11.85,0,0,1-3,.39,28.42,28.42,0,0,0-10.69,3.9,2,2,0,0,1-2.4.13,28.19,28.19,0,0,0-13.46-4.25C282.48,87.65,282.37,87.56,282.14,87.45Z" transform="translate(-26.39 -22.41)" fill="#0e2948"/><path d="M364.13,238.66H350.57V227.45c.27-.38.74-.25,1.16-.25,2.57,0,5.13,0,7.7,0,3.17,0,4.87,1.7,4.89,4.84,0,2.07,0,4.13,0,6.2A1.61,1.61,0,0,1,364.13,238.66Z" transform="translate(-26.39 -22.41)" fill="#0e2948"/><path d="M224.17,92.62a1.64,1.64,0,0,1,.39,1.3c0,3.63,0,7.27,0,11.06H212.94a1.49,1.49,0,0,1-.44-1.25c0-3.2,0-6.4,0-9.6,0-1,.27-1.54,1.37-1.53C217.32,92.64,220.77,92.62,224.17,92.62Z" transform="translate(-26.39 -22.41)" fill="#1ab3c8"/><path d="M319.48,103a9.17,9.17,0,0,1-2.5,0c-.49-.47-.33-1-.33-1.48,0-3.67-.57-7.47.17-11,.78-3.69.3-7.3.6-10.93.05-.69.34-1,1.13-1a9.75,9.75,0,0,1,.18,3.28c0,2,0,3.89,0,5.84,0,.61-.12,1.25.46,1.74a1,1,0,0,1,.29.67C319.38,94.44,319.8,98.66,319.48,103Z" transform="translate(-26.39 -22.41)" fill="#0e2a45"/><path d="M267.13,170.84a3.69,3.69,0,0,1-.64,1.95c-2.58,3.9-5.11,7.83-7.74,11.7-1.42,2.1-3.67,2.2-5.18.38a3,3,0,0,1-.17-3.66q4.07-6.28,8.25-12.48a3.19,3.19,0,0,1,3.69-1C266.44,168.06,267.12,169.14,267.13,170.84Z" transform="translate(-26.39 -22.41)" fill="#f8fbfb"/><path d="M236.79,173.33a3,3,0,0,1-3-4,6.07,6.07,0,0,1,.79-1.69c2.51-3.57,4.85-7.25,7.16-11a5.09,5.09,0,0,1,.6-.72,3.17,3.17,0,0,1,4.37-.59,3.26,3.26,0,0,1,.66,4.4c-2.23,3.46-4.51,6.88-6.78,10.32-.41.62-.8,1.27-1.23,1.87A2.53,2.53,0,0,1,236.79,173.33Z" transform="translate(-26.39 -22.41)" fill="#f8fbfa"/><path d="M160.91,263.6H141.26c.19-3.49,1.31-6.49,4.11-8.58a9.37,9.37,0,0,1,10.77-.63C159.53,256.29,160.66,259.65,160.91,263.6Z" transform="translate(-26.39 -22.41)" fill="#f9fbfb"/><path d="M459.06,263.58h-19.6c.2-5.35,3.49-10.55,10-10.49C455.29,253.15,458.53,257.44,459.06,263.58Z" transform="translate(-26.39 -22.41)" fill="#fcfefd"/><path d="M378.67,325.25v-8.38c3.11.07,6.16-.24,9.19.17,2.53.34,3.73,2,3.6,4.46a4,4,0,0,1-4,3.72C384.56,325.36,381.68,325.25,378.67,325.25Z" transform="translate(-26.39 -22.41)" fill="#fdfdfe"/><path d="M349.28,332.9c-3,0-5.77,0-8.52,0a1.76,1.76,0,0,1-1.4-.32l4.69-13.88.4,0Z" transform="translate(-26.39 -22.41)" fill="#f8fafa"/></svg>