<svg width="46" height="61" viewBox="0 0 46 61" fill="none" xmlns="http://www.w3.org/2000/svg">
<path d="M1 5.2356H5.92086C10.2692 5.2356 13.7942 8.76063 13.7942 13.109V55.1003H8.87338C4.52503 55.1003 1 51.5753 1 47.2269V5.2356Z" fill="#F21A27"/>
<path d="M11.1697 28.0884C16.4173 32.8204 24.5074 32.4024 29.2394 27.1548L45.9998 8.56806C40.7521 3.83607 32.6621 4.25406 27.9301 9.50168L11.1697 28.0884Z" fill="#F21A27"/>
<path d="M45.7778 51.9092C40.479 56.5838 32.394 56.0778 27.7194 50.779L10.1016 30.8087C15.4004 26.134 23.4854 26.6401 28.16 31.9389L45.7778 51.9092Z" fill="#F21A27"/>
<path d="M0 5.2356H4.92086C9.26921 5.2356 12.7942 8.76063 12.7942 13.109V55.1003H7.87338C3.52503 55.1003 0 51.5753 0 47.2269V5.2356Z" fill="white"/>
<path d="M10.1697 28.0884C15.4173 32.8204 23.5074 32.4024 28.2394 27.1548L44.9998 8.56806C39.7521 3.83607 31.6621 4.25406 26.9301 9.50168L10.1697 28.0884Z" fill="white"/>
<path d="M44.7778 51.9092C39.479 56.5838 31.394 56.0778 26.7194 50.779L9.10157 30.8087C14.4004 26.134 22.4854 26.6401 27.16 31.9389L44.7778 51.9092Z" fill="white"/>
</svg>
