<svg width="42" height="42" viewBox="0 0 42 42" fill="none" xmlns="http://www.w3.org/2000/svg">
<circle cx="21" cy="21" r="21" fill="#06DFE8"/>
<path d="M16 21C16 21.5304 15.7893 22.0391 15.4142 22.4142C15.0391 22.7893 14.5304 23 14 23C13.4696 23 12.9609 22.7893 12.5858 22.4142C12.2107 22.0391 12 21.5304 12 21C12 20.4696 12.2107 19.9609 12.5858 19.5858C12.9609 19.2107 13.4696 19 14 19C14.5304 19 15.0391 19.2107 15.4142 19.5858C15.7893 19.9609 16 20.4696 16 21ZM23 21C23 21.5304 22.7893 22.0391 22.4142 22.4142C22.0391 22.7893 21.5304 23 21 23C20.4696 23 19.9609 22.7893 19.5858 22.4142C19.2107 22.0391 19 21.5304 19 21C19 20.4696 19.2107 19.9609 19.5858 19.5858C19.9609 19.2107 20.4696 19 21 19C21.5304 19 22.0391 19.2107 22.4142 19.5858C22.7893 19.9609 23 20.4696 23 21ZM30 21C30 21.5304 29.7893 22.0391 29.4142 22.4142C29.0391 22.7893 28.5304 23 28 23C27.4696 23 26.9609 22.7893 26.5858 22.4142C26.2107 22.0391 26 21.5304 26 21C26 20.4696 26.2107 19.9609 26.5858 19.5858C26.9609 19.2107 27.4696 19 28 19C28.5304 19 29.0391 19.2107 29.4142 19.5858C29.7893 19.9609 30 20.4696 30 21Z" fill="white"/>
</svg>
