<svg width="42" height="42" viewBox="0 0 42 42" fill="none" xmlns="http://www.w3.org/2000/svg">
<circle cx="21" cy="21" r="21" fill="#1F68B9"/>
<path d="M24.5 10H16.5C15.837 10 15.2011 10.2634 14.7322 10.7322C14.2634 11.2011 14 11.837 14 12.5V29.5C14 30.163 14.2634 30.7989 14.7322 31.2678C15.2011 31.7366 15.837 32 16.5 32H24.5C25.163 32 25.7989 31.7366 26.2678 31.2678C26.7366 30.7989 27 30.163 27 29.5V12.5C27 11.837 26.7366 11.2011 26.2678 10.7322C25.7989 10.2634 25.163 10 24.5 10ZM20.5 31C19.67 31 19 30.33 19 29.5C19 28.67 19.67 28 20.5 28C21.33 28 22 28.67 22 29.5C22 30.33 21.33 31 20.5 31ZM25 27H16V13H25V27Z" fill="white"/>
</svg>
