<svg width="42" height="42" viewBox="0 0 42 42" fill="none" xmlns="http://www.w3.org/2000/svg">
<circle cx="21" cy="21" r="21" fill="#F0412D"/>
<g clip-path="url(#clip0_21_128)">
<path d="M21 19.2812H32.3281C32.4531 19.9792 32.5156 20.6458 32.5156 21.2812C32.5156 23.5417 32.0417 25.5599 31.0938 27.3359C30.1458 29.112 28.7943 30.5 27.0391 31.5C25.2839 32.5 23.2708 33 21 33C19.3646 33 17.8073 32.6849 16.3281 32.0547C14.849 31.4245 13.5729 30.5729 12.5 29.5C11.4271 28.4271 10.5755 27.151 9.94531 25.6719C9.3151 24.1927 9 22.6354 9 21C9 19.3646 9.3151 17.8073 9.94531 16.3281C10.5755 14.849 11.4271 13.5729 12.5 12.5C13.5729 11.4271 14.849 10.5755 16.3281 9.94531C17.8073 9.3151 19.3646 9 21 9C24.125 9 26.8073 10.0469 29.0469 12.1406L25.7812 15.2812C24.5 14.0417 22.9062 13.4219 21 13.4219C19.6562 13.4219 18.4141 13.7604 17.2734 14.4375C16.1328 15.1146 15.2292 16.0339 14.5625 17.1953C13.8958 18.3568 13.5625 19.625 13.5625 21C13.5625 22.375 13.8958 23.6432 14.5625 24.8047C15.2292 25.9661 16.1328 26.8854 17.2734 27.5625C18.4141 28.2396 19.6562 28.5781 21 28.5781C21.9062 28.5781 22.7396 28.4531 23.5 28.2031C24.2604 27.9531 24.8854 27.6406 25.375 27.2656C25.8646 26.8906 26.2917 26.4635 26.6562 25.9844C27.0208 25.5052 27.2891 25.0521 27.4609 24.625C27.6328 24.1979 27.75 23.7917 27.8125 23.4062H21V19.2812Z" fill="white"/>
</g>
<defs>
<clipPath id="clip0_21_128">
<rect width="24" height="24" fill="white" transform="translate(9 9)"/>
</clipPath>
</defs>
</svg>
